<?xml version="1.0" standalone="no"?>
<svg xmlns="http://www.w3.org/2000/svg" xmlns:xlink="http://www.w3.org/1999/xlink" width="346pt" height="346pt" viewBox="0.00 0.00 346.00 346.00">
<g id="graph0" class="graph" transform="translate(4,342) scale(1)" data-name="Grid5x5">

<polygon fill="white" stroke="none" points="-4,4 -4,-342 342,-342 342,4 -4,4"/>
<!-- r1c1&#45;&gt;r2c1 -->
<g id="edge5" class="edge" data-name="r1c1-&gt;r2c1">

<path fill="none" stroke="rgb(0, 0, 255)" stroke-width="1.5" d="M97,-241C97,-241 97,-198.79 97,-179.01"/>
<polygon fill="blue" stroke="blue" stroke-width="1.5" points="99.8,-179.27 97,-171.27 94.2,-179.27 99.8,-179.27"/>
</g>
<!-- r1c2&#45;&gt;r1c1 -->
<g id="edge4" class="edge" data-name="r1c2-&gt;r1c1">

<path fill="none" stroke="rgb(0, 0, 255)" stroke-width="1.5" d="M169,-241C169,-241 126.79,-241 107.01,-241"/>
<polygon fill="blue" stroke="blue" stroke-width="1.5" points="107.27,-238.2 99.27,-241 107.27,-243.8 107.27,-238.2"/>
</g>
<!-- r2c1&#45;&gt;r3c1 -->
<g id="edge6" class="edge" data-name="r2c1-&gt;r3c1">

<path fill="none" stroke="rgb(0, 0, 255)" stroke-width="1.5" d="M97,-169C97,-169 97,-126.79 97,-107.01"/>
<polygon fill="blue" stroke="blue" stroke-width="1.5" points="99.8,-107.27 97,-99.27 94.2,-107.27 99.8,-107.27"/>
</g>
<!-- r2c2&#45;&gt;r1c2 -->
<g id="edge3" class="edge" data-name="r2c2-&gt;r1c2">

<path fill="none" stroke="rgb(0, 128, 0)" stroke-width="1.5" d="M169,-169C169,-169 169,-211.21 169,-230.99"/>
<polygon fill="green" stroke="green" stroke-width="1.5" points="166.2,-230.73 169,-238.73 171.8,-230.73 166.2,-230.73"/>
</g>
<!-- r2c3&#45;&gt;r2c2 -->
<g id="edge2" class="edge" data-name="r2c3-&gt;r2c2">

<path fill="none" stroke="rgb(0, 128, 0)" stroke-width="1.5" d="M241,-169C241,-169 198.79,-169 179.01,-169"/>
<polygon fill="green" stroke="green" stroke-width="1.5" points="179.27,-166.2 171.27,-169 179.27,-171.8 179.27,-166.2"/>
</g>
<!-- r2c4&#45;&gt;r2c3 -->
<g id="edge1" class="edge" data-name="r2c4-&gt;r2c3">

<path fill="none" stroke="rgb(0, 128, 0)" stroke-width="1.5" d="M313,-169C313,-169 270.79,-169 251.01,-169"/>
<polygon fill="green" stroke="green" stroke-width="1.5" points="251.27,-166.2 243.27,-169 251.27,-171.8 251.27,-166.2"/>
</g>
<!-- r3c1&#45;&gt;r3c2 -->
<g id="edge7" class="edge" data-name="r3c1-&gt;r3c2">

<path fill="none" stroke="rgb(0, 0, 255)" stroke-width="1.5" d="M97,-97C97,-97 139.21,-97 158.99,-97"/>
<polygon fill="blue" stroke="blue" stroke-width="1.5" points="158.73,-99.8 166.73,-97 158.73,-94.2 158.73,-99.8"/>
</g>
<!-- r3c2&#45;&gt;r3c3 -->
<g id="edge8" class="edge" data-name="r3c2-&gt;r3c3">

<path fill="none" stroke="rgb(0, 0, 255)" stroke-width="1.5" d="M169,-97C169,-97 211.21,-97 230.99,-97"/>
<polygon fill="blue" stroke="blue" stroke-width="1.5" points="230.73,-99.8 238.73,-97 230.73,-94.2 230.73,-99.8"/>
</g>
<!-- r3c3&#45;&gt;r3c4 -->
<g id="edge9" class="edge" data-name="r3c3-&gt;r3c4">

<path fill="none" stroke="rgb(0, 0, 255)" stroke-width="1.5" d="M241,-97C241,-97 283.21,-97 302.99,-97"/>
<polygon fill="blue" stroke="blue" stroke-width="1.5" points="302.73,-99.8 310.73,-97 302.73,-94.2 302.73,-99.8"/>
</g>
<!-- r0c0 -->
<g id="node1" class="node" pointer-events="visible" data-name="r0c0">

<polygon fill="none" stroke="black" points="50,-338 0,-338 0,-288 50,-288 50,-338"/>
</g>
<!-- r0c1 -->
<g id="node2" class="node" pointer-events="visible" data-name="r0c1">

<polygon fill="none" stroke="black" points="122,-338 72,-338 72,-288 122,-288 122,-338"/>
</g>
<!-- r0c2 -->
<g id="node3" class="node" pointer-events="visible" data-name="r0c2">

<polygon fill="none" stroke="black" points="194,-338 144,-338 144,-288 194,-288 194,-338"/>
</g>
<!-- r0c3 -->
<g id="node4" class="node" pointer-events="visible" data-name="r0c3">

<polygon fill="none" stroke="black" points="266,-338 216,-338 216,-288 266,-288 266,-338"/>
</g>
<!-- r0c4 -->
<g id="node5" class="node" pointer-events="visible" data-name="r0c4">

<polygon fill="none" stroke="black" points="338,-338 288,-338 288,-288 338,-288 338,-338"/>
</g>
<!-- r1c0 -->
<g id="node6" class="node" pointer-events="visible" data-name="r1c0">

<polygon fill="none" stroke="black" points="50,-266 0,-266 0,-216 50,-216 50,-266"/>
</g>
<!-- r1c1 -->
<g id="node7" class="node" pointer-events="visible" data-name="r1c1">

<polygon fill="none" stroke="black" points="122,-266 72,-266 72,-216 122,-216 122,-266"/>
</g>
<!-- r1c2 -->
<g id="node8" class="node" pointer-events="visible" data-name="r1c2">

<polygon fill="none" stroke="black" points="194,-266 144,-266 144,-216 194,-216 194,-266"/>
</g>
<!-- r1c3 -->
<g id="node9" class="node" pointer-events="visible" data-name="r1c3">

<polygon fill="none" stroke="black" points="266,-266 216,-266 216,-216 266,-216 266,-266"/>
</g>
<!-- r1c4 -->
<g id="node10" class="node" pointer-events="visible" data-name="r1c4">

<polygon fill="none" stroke="black" points="338,-266 288,-266 288,-216 338,-216 338,-266"/>
</g>
<!-- r2c0 -->
<g id="node11" class="node" pointer-events="visible" data-name="r2c0">

<polygon fill="none" stroke="black" points="50,-194 0,-194 0,-144 50,-144 50,-194"/>
</g>
<!-- r2c1 -->
<g id="node12" class="node" pointer-events="visible" data-name="r2c1">

<polygon fill="none" stroke="black" points="122,-194 72,-194 72,-144 122,-144 122,-194"/>
</g>
<!-- r2c2 -->
<g id="node13" class="node" pointer-events="visible" data-name="r2c2">

<polygon fill="none" stroke="black" points="194,-194 144,-194 144,-144 194,-144 194,-194"/>
</g>
<!-- r2c3 -->
<g id="node14" class="node" pointer-events="visible" data-name="r2c3">

<polygon fill="none" stroke="black" points="266,-194 216,-194 216,-144 266,-144 266,-194"/>
</g>
<!-- r2c4 -->
<g id="node15" class="node" pointer-events="visible" data-name="r2c4">

<polygon fill="none" stroke="black" points="338,-194 288,-194 288,-144 338,-144 338,-194"/>
</g>
<!-- r3c0 -->
<g id="node16" class="node" pointer-events="visible" data-name="r3c0">

<polygon fill="none" stroke="black" points="50,-122 0,-122 0,-72 50,-72 50,-122"/>
</g>
<!-- r3c1 -->
<g id="node17" class="node" pointer-events="visible" data-name="r3c1">

<polygon fill="none" stroke="black" points="122,-122 72,-122 72,-72 122,-72 122,-122"/>
</g>
<!-- r3c2 -->
<g id="node18" class="node" pointer-events="visible" data-name="r3c2">

<polygon fill="none" stroke="black" points="194,-122 144,-122 144,-72 194,-72 194,-122"/>
</g>
<!-- r3c3 -->
<g id="node19" class="node" pointer-events="visible" data-name="r3c3">

<polygon fill="none" stroke="black" points="266,-122 216,-122 216,-72 266,-72 266,-122"/>
</g>
<!-- r3c4 -->
<g id="node20" class="node" pointer-events="visible" data-name="r3c4">

<polygon fill="none" stroke="black" points="338,-122 288,-122 288,-72 338,-72 338,-122"/>
<text text-anchor="middle" x="313" y="-91" font-family="Times,serif" font-size="20" fill="rgb(255, 0, 0)">O</text>
</g>
<!-- r4c0 -->
<g id="node21" class="node" pointer-events="visible" data-name="r4c0">

<polygon fill="none" stroke="black" points="50,-50 0,-50 0,0 50,0 50,-50"/>
</g>
<!-- r4c1 -->
<g id="node22" class="node" pointer-events="visible" data-name="r4c1">

<polygon fill="none" stroke="black" points="122,-50 72,-50 72,0 122,0 122,-50"/>
</g>
<!-- r4c2 -->
<g id="node23" class="node" pointer-events="visible" data-name="r4c2">

<polygon fill="none" stroke="black" points="194,-50 144,-50 144,0 194,0 194,-50"/>
</g>
<!-- r4c3 -->
<g id="node24" class="node" pointer-events="visible" data-name="r4c3">

<polygon fill="none" stroke="black" points="266,-50 216,-50 216,0 266,0 266,-50"/>
</g>
<!-- r4c4 -->
<g id="node25" class="node" pointer-events="visible" data-name="r4c4">

<polygon fill="none" stroke="black" points="338,-50 288,-50 288,0 338,0 338,-50"/>
</g>
</g>
</svg>